<svg xmlns="http://www.w3.org/2000/svg" width="32" height="32">
  <path fill="#444"
    d="M 17.560006,3.7812471 V 3.0633424 H 25.23905 V 4.605018 h 1.616885 v 11.109916 h -0.4267 v 0.971689 h 1.39883 V 4.1164899 L 25.739341,2.0915795 h -9.151098 v 1.6896676 z m -1.996312,1.3157544 h 7.678824 v 1.5416756 h 1.616884 V 17.748813 h -0.427067 v 0.97169 h 1.39883 V 6.150149 L 23.742809,4.1256062 h -9.151246 v 1.6893 h 0.972131 z M 12.691707,6.3620283 V 20.957072 H 23.930942 V 8.3869387 L 21.842585,6.3620283 Z M 22.959546,19.985383 H 13.663838 V 7.3337912 h 7.678456 v 1.5416756 h 1.616517 V 19.985383 Z m -1.753849,-2.459844 c -2.007192,0 -4.014164,0 -6.020401,0 -0.503452,0 -0.503452,0.781718 0,0.781718 2.006237,0 4.013209,0 6.020401,0 0.503232,-7.3e-5 0.503232,-0.781718 0,-0.781718 z m 0.114983,-1.746056 c -2.006458,0 -4.012695,0 -6.019299,0 -0.50382,0 -0.50382,0.781424 0,0.781424 2.006604,0 4.012841,0 6.019299,0 0.504775,-7.3e-5 0.504775,-0.781424 0,-0.781424 z m 0,-1.850158 c -2.006458,0 -4.012695,0 -6.019299,0 -0.50382,0 -0.50382,0.781718 0,0.781718 2.006604,0 4.012841,0 6.019299,0 0.504775,-7.3e-5 0.504775,-0.781718 0,-0.781718 z m 0,-1.714002 c -2.006458,0 -4.012695,0 -6.019299,0 -0.50382,0 -0.50382,0.781792 0,0.781792 2.006604,0 4.012841,0 6.019299,0 0.504775,0 0.504775,-0.781792 0,-0.781792 z m -6.019299,-1.850526 c -0.50382,0 -0.50382,0.782675 0,0.782675 2.006604,0 4.012841,0 6.019299,0 0.504702,0 0.504702,-0.782675 0,-0.782675 -2.006458,0 -4.012695,0 -6.019299,0 z" />
  <path fill="#444"
    d="m 13.22124,16.404902 c -2.788116,0 -5.0493583,2.261819 -5.0493583,5.050511 0,1.025534 0.310366,1.97506 0.834362,2.77257 0,0 -3.156641,3.141094 -4.089469,4.089468 -0.933403,0.947798 0.576395,2.34416 1.498282,1.387149 0.922463,-0.955285 4.0341903,-4.033614 4.0341903,-4.033614 0.796934,0.524571 1.747611,0.834938 2.771993,0.834938 2.789845,0 5.051087,-2.26297 5.051087,-5.050511 5.76e-4,-2.789268 -2.261242,-5.050511 -5.051087,-5.050511 z m 0,8.657443 c -1.991758,0 -3.6075073,-1.614597 -3.6075073,-3.606932 0,-1.992334 1.6151733,-3.607507 3.6075073,-3.607507 1.993487,0 3.608084,1.614597 3.608084,3.607507 0,1.992335 -1.614597,3.606932 -3.608084,3.606932 z" />
</svg>
